<svg xmlns="http://www.w3.org/2000/svg" xmlns:xlink="http://www.w3.org/1999/xlink" width="64" zoomAndPan="magnify" viewBox="0 0 48 48" height="64" preserveAspectRatio="xMidYMid meet" version="1.0"><defs><clipPath id="id1"><path d="M 8 5.632812 L 35 5.632812 L 35 41.632812 L 8 41.632812 Z M 8 5.632812 " clip-rule="nonzero"/></clipPath><clipPath id="id2"><path d="M 18 20 L 47.507812 20 L 47.507812 41 L 18 41 Z M 18 20 " clip-rule="nonzero"/></clipPath><clipPath id="id3"><path d="M 0.488281 5.632812 L 23 5.632812 L 23 41 L 0.488281 41 Z M 0.488281 5.632812 " clip-rule="nonzero"/></clipPath></defs><g clip-path="url(#id1)"><path fill="rgb(98.81897%, 72.938538%, 1.179504%)" d="M 28.042969 40.191406 C 27.558594 40.191406 27.164062 39.796875 27.164062 39.308594 C 27.164062 38.820312 27.558594 38.425781 28.042969 38.425781 C 28.527344 38.425781 28.917969 38.820312 28.917969 39.308594 C 28.917969 39.796875 28.527344 40.191406 28.042969 40.191406 Z M 32.039062 15.355469 C 31.554688 15.355469 31.160156 14.957031 31.160156 14.46875 C 31.160156 13.980469 31.554688 13.585938 32.039062 13.585938 C 32.523438 13.585938 32.917969 13.980469 32.917969 14.46875 C 32.917969 14.957031 32.523438 15.355469 32.039062 15.355469 Z M 28.042969 36.984375 C 27.257812 36.984375 26.5625 37.378906 26.148438 37.984375 L 11.582031 37.96875 L 27.734375 9.519531 L 29.988281 13.410156 C 29.824219 13.726562 29.734375 14.089844 29.734375 14.46875 C 29.734375 15.753906 30.765625 16.792969 32.039062 16.792969 C 33.3125 16.792969 34.347656 15.753906 34.347656 14.46875 C 34.347656 13.25 33.414062 12.25 32.226562 12.15625 L 28.5625 6.039062 C 28.5625 6.039062 27.476562 4.964844 26.25 7.109375 L 8.515625 38.105469 C 8.515625 38.105469 6.980469 40.359375 9.457031 40.480469 L 26.050781 40.480469 C 26.449219 41.167969 27.191406 41.632812 28.042969 41.632812 C 29.316406 41.632812 30.347656 40.589844 30.347656 39.308594 C 30.347656 38.027344 29.316406 36.984375 28.042969 36.984375 Z M 28.042969 36.984375 " fill-opacity="1" fill-rule="nonzero"/></g><g clip-path="url(#id2)"><path fill="rgb(85.099792%, 85.099792%, 85.099792%)" d="M 26.753906 20.773438 C 28.773438 20.722656 35.496094 20.507812 36.597656 21.0625 C 37.214844 21.378906 37.96875 22.992188 38.347656 23.574219 C 40.734375 27.21875 47.074219 38.222656 47.074219 38.222656 C 47.074219 38.222656 48.371094 40.003906 46.484375 40.480469 L 36.34375 40.480469 C 36.34375 40.480469 35.753906 40.632812 35.046875 39.308594 L 30.921875 32.046875 L 21.199219 32.046875 L 21.199219 32.054688 L 18.390625 32.054688 C 19.902344 29.441406 22.976562 24.167969 25.066406 20.773438 Z M 26.753906 20.773438 " fill-opacity="1" fill-rule="nonzero"/></g><g clip-path="url(#id3)"><path fill="rgb(98.81897%, 72.938538%, 1.179504%)" d="M 2.8125 39.085938 C 3.296875 39.085938 3.691406 38.691406 3.691406 38.203125 C 3.691406 37.714844 3.296875 37.320312 2.8125 37.320312 C 2.328125 37.320312 1.9375 37.714844 1.9375 38.203125 C 1.9375 38.691406 2.328125 39.085938 2.8125 39.085938 Z M 19.167969 9.890625 C 19.175781 9.894531 19.183594 9.898438 19.191406 9.902344 Z M 19.820312 10.183594 C 19.832031 10.1875 19.839844 10.1875 19.851562 10.191406 Z M 19.910156 10.207031 C 19.917969 10.207031 19.925781 10.207031 19.933594 10.210938 C 19.925781 10.207031 19.917969 10.207031 19.910156 10.207031 Z M 20.394531 10.257812 L 16.640625 16.867188 L 4.910156 37.332031 C 5.011719 37.59375 5.066406 37.878906 5.066406 38.179688 C 5.066406 39.464844 4.035156 40.503906 2.761719 40.503906 C 1.910156 40.503906 1.167969 40.039062 0.769531 39.351562 L 0.75 39.351562 C 0.550781 39.007812 0.4375 38.605469 0.4375 38.179688 C 0.4375 37.6875 0.585938 37.234375 0.84375 36.855469 L 0.867188 36.855469 C 1.28125 36.253906 1.976562 35.855469 2.761719 35.855469 C 2.800781 35.855469 2.839844 35.859375 2.878906 35.859375 L 18.292969 8.925781 L 18.296875 8.941406 C 18.152344 8.636719 18.074219 8.292969 18.074219 7.933594 C 18.074219 7.441406 18.222656 6.988281 18.480469 6.609375 L 18.503906 6.609375 C 18.917969 6.007812 19.613281 5.609375 20.398438 5.609375 C 21.671875 5.609375 22.703125 6.652344 22.703125 7.933594 C 22.703125 9.21875 21.671875 10.257812 20.398438 10.257812 Z M 4.90625 37.320312 C 4.898438 37.308594 4.894531 37.296875 4.890625 37.28125 C 4.894531 37.296875 4.898438 37.308594 4.90625 37.320312 Z M 4.882812 37.269531 C 4.878906 37.257812 4.871094 37.242188 4.867188 37.230469 C 4.871094 37.242188 4.878906 37.257812 4.882812 37.269531 Z M 4.863281 37.222656 C 4.855469 37.207031 4.847656 37.191406 4.839844 37.175781 C 4.847656 37.191406 4.855469 37.207031 4.863281 37.222656 Z M 4.835938 37.164062 C 4.832031 37.152344 4.824219 37.140625 4.820312 37.128906 C 4.824219 37.140625 4.832031 37.152344 4.835938 37.164062 Z M 4.8125 37.117188 C 4.804688 37.101562 4.796875 37.089844 4.792969 37.078125 C 4.796875 37.089844 4.804688 37.101562 4.8125 37.117188 Z M 4.789062 37.070312 C 4.78125 37.058594 4.773438 37.042969 4.765625 37.027344 C 4.773438 37.042969 4.78125 37.058594 4.789062 37.070312 Z M 4.757812 37.015625 C 4.75 37.003906 4.746094 36.996094 4.738281 36.984375 C 4.746094 36.992188 4.75 37.003906 4.757812 37.015625 Z M 4.730469 36.972656 C 4.722656 36.957031 4.714844 36.941406 4.703125 36.929688 C 4.714844 36.941406 4.722656 36.957031 4.730469 36.972656 Z M 4.703125 36.929688 C 4.695312 36.914062 4.6875 36.898438 4.675781 36.886719 C 4.6875 36.898438 4.695312 36.914062 4.703125 36.929688 Z M 4.667969 36.875 C 4.660156 36.863281 4.652344 36.851562 4.648438 36.84375 C 4.652344 36.851562 4.660156 36.863281 4.667969 36.875 Z M 4.640625 36.832031 C 4.628906 36.816406 4.621094 36.804688 4.609375 36.792969 C 4.621094 36.804688 4.628906 36.816406 4.640625 36.832031 Z M 4.605469 36.785156 C 4.597656 36.773438 4.589844 36.761719 4.578125 36.75 C 4.589844 36.761719 4.597656 36.773438 4.605469 36.785156 Z M 4.570312 36.738281 C 4.5625 36.730469 4.554688 36.71875 4.546875 36.710938 C 4.554688 36.71875 4.5625 36.730469 4.570312 36.738281 Z M 4.539062 36.699219 C 4.527344 36.6875 4.515625 36.675781 4.507812 36.660156 C 4.515625 36.675781 4.527344 36.6875 4.539062 36.699219 Z M 4.5 36.65625 C 4.492188 36.644531 4.480469 36.632812 4.472656 36.625 C 4.480469 36.632812 4.492188 36.644531 4.5 36.65625 Z M 4.460938 36.613281 C 4.453125 36.601562 4.445312 36.59375 4.433594 36.582031 C 4.445312 36.59375 4.453125 36.601562 4.460938 36.613281 Z M 4.429688 36.574219 C 4.417969 36.5625 4.40625 36.550781 4.394531 36.539062 C 4.40625 36.550781 4.417969 36.5625 4.429688 36.574219 Z M 4.386719 36.53125 C 4.375 36.523438 4.367188 36.511719 4.359375 36.503906 C 4.367188 36.511719 4.375 36.523438 4.386719 36.53125 Z M 4.347656 36.496094 C 4.335938 36.484375 4.324219 36.472656 4.316406 36.464844 C 4.324219 36.472656 4.335938 36.484375 4.347656 36.496094 Z M 4.3125 36.460938 C 4.296875 36.449219 4.285156 36.4375 4.273438 36.425781 C 4.285156 36.4375 4.296875 36.449219 4.3125 36.460938 Z M 4.261719 36.417969 C 4.253906 36.410156 4.246094 36.402344 4.234375 36.394531 C 4.242188 36.402344 4.253906 36.410156 4.261719 36.417969 Z M 4.183594 36.351562 C 4.171875 36.34375 4.160156 36.332031 4.144531 36.324219 C 4.160156 36.332031 4.171875 36.34375 4.183594 36.351562 Z M 4.132812 36.3125 C 4.125 36.304688 4.113281 36.296875 4.101562 36.292969 C 4.113281 36.296875 4.125 36.304688 4.132812 36.3125 Z M 4.09375 36.285156 C 4.078125 36.273438 4.066406 36.265625 4.050781 36.253906 C 4.066406 36.265625 4.078125 36.273438 4.09375 36.285156 Z M 4.042969 36.25 C 4.03125 36.242188 4.023438 36.234375 4.011719 36.226562 C 4.023438 36.234375 4.03125 36.242188 4.042969 36.25 Z M 3.996094 36.21875 C 3.984375 36.210938 3.972656 36.203125 3.964844 36.199219 C 3.972656 36.203125 3.984375 36.210938 3.996094 36.21875 Z M 3.953125 36.191406 C 3.941406 36.183594 3.925781 36.175781 3.910156 36.167969 C 3.925781 36.175781 3.941406 36.183594 3.953125 36.191406 Z M 3.902344 36.160156 C 3.890625 36.152344 3.878906 36.148438 3.867188 36.140625 C 3.878906 36.148438 3.890625 36.152344 3.902344 36.160156 Z M 3.855469 36.132812 C 3.839844 36.128906 3.828125 36.121094 3.816406 36.113281 C 3.828125 36.121094 3.839844 36.128906 3.855469 36.132812 Z M 3.808594 36.109375 C 3.792969 36.101562 3.777344 36.09375 3.765625 36.089844 C 3.777344 36.09375 3.792969 36.101562 3.808594 36.109375 Z M 3.753906 36.082031 C 3.742188 36.078125 3.730469 36.070312 3.71875 36.066406 C 3.730469 36.070312 3.742188 36.078125 3.753906 36.082031 Z M 3.703125 36.058594 C 3.691406 36.054688 3.675781 36.046875 3.664062 36.042969 C 3.675781 36.046875 3.691406 36.054688 3.703125 36.058594 Z M 3.65625 36.039062 C 3.640625 36.03125 3.625 36.027344 3.609375 36.019531 C 3.625 36.027344 3.640625 36.03125 3.65625 36.039062 Z M 3.597656 36.015625 C 3.585938 36.011719 3.574219 36.007812 3.5625 36 C 3.574219 36.003906 3.585938 36.011719 3.597656 36.015625 Z M 3.550781 35.996094 C 3.53125 35.992188 3.515625 35.984375 3.5 35.980469 C 3.515625 35.984375 3.53125 35.992188 3.550781 35.996094 Z M 3.496094 35.976562 C 3.484375 35.972656 3.46875 35.96875 3.453125 35.964844 C 3.46875 35.96875 3.484375 35.972656 3.496094 35.976562 Z M 3.4375 35.960938 C 3.425781 35.957031 3.414062 35.953125 3.402344 35.949219 C 3.414062 35.953125 3.425781 35.957031 3.4375 35.960938 Z M 3.386719 35.945312 C 3.371094 35.941406 3.355469 35.933594 3.339844 35.929688 C 3.355469 35.933594 3.371094 35.941406 3.386719 35.945312 Z M 3.332031 35.929688 C 3.316406 35.925781 3.300781 35.921875 3.289062 35.917969 C 3.300781 35.921875 3.316406 35.925781 3.332031 35.929688 Z M 3.273438 35.914062 C 3.261719 35.910156 3.246094 35.910156 3.234375 35.90625 C 3.246094 35.910156 3.261719 35.910156 3.273438 35.914062 Z M 3.222656 35.902344 C 3.207031 35.902344 3.1875 35.898438 3.171875 35.894531 C 3.1875 35.898438 3.207031 35.902344 3.222656 35.902344 Z M 3.160156 35.890625 C 3.148438 35.890625 3.132812 35.886719 3.121094 35.886719 C 3.132812 35.886719 3.148438 35.890625 3.160156 35.890625 Z M 3.105469 35.882812 C 3.089844 35.878906 3.074219 35.878906 3.058594 35.875 C 3.074219 35.878906 3.089844 35.878906 3.105469 35.882812 Z M 3.054688 35.875 C 3.035156 35.875 3.019531 35.871094 3 35.871094 C 3.019531 35.871094 3.035156 35.875 3.054688 35.875 Z M 2.988281 35.867188 C 2.972656 35.867188 2.960938 35.867188 2.945312 35.863281 C 2.960938 35.867188 2.972656 35.867188 2.988281 35.867188 Z M 2.933594 35.863281 C 2.914062 35.863281 2.898438 35.859375 2.878906 35.859375 C 2.898438 35.859375 2.914062 35.863281 2.933594 35.863281 Z M 18.316406 8.976562 C 18.320312 8.988281 18.324219 8.996094 18.332031 9.003906 C 18.324219 8.996094 18.320312 8.988281 18.316406 8.976562 Z M 18.375 9.089844 C 18.378906 9.097656 18.382812 9.101562 18.382812 9.105469 Z M 20.398438 8.816406 C 20.882812 8.816406 21.273438 8.421875 21.273438 7.933594 C 21.273438 7.445312 20.882812 7.050781 20.398438 7.050781 C 19.914062 7.050781 19.519531 7.445312 19.519531 7.933594 C 19.519531 8.421875 19.914062 8.816406 20.398438 8.816406 Z M 20.394531 10.257812 C 20.382812 10.257812 20.371094 10.257812 20.355469 10.257812 C 20.34375 10.257812 20.332031 10.257812 20.316406 10.253906 C 20.304688 10.253906 20.292969 10.253906 20.277344 10.253906 C 20.265625 10.253906 20.25 10.253906 20.238281 10.25 C 20.226562 10.25 20.210938 10.25 20.199219 10.25 C 20.1875 10.246094 20.171875 10.246094 20.160156 10.246094 C 20.148438 10.242188 20.136719 10.242188 20.121094 10.242188 C 20.109375 10.238281 20.097656 10.238281 20.082031 10.234375 C 20.070312 10.234375 20.058594 10.230469 20.046875 10.230469 C 20.03125 10.226562 20.019531 10.226562 20.007812 10.222656 C 19.996094 10.222656 19.980469 10.21875 19.96875 10.21875 C 19.957031 10.214844 19.945312 10.210938 19.933594 10.210938 Z M 4.648438 36.398438 L 4.648438 36.402344 C 4.664062 36.410156 4.675781 36.421875 4.6875 36.433594 L 4.699219 36.441406 Z M 4.648438 36.398438 " fill-opacity="1" fill-rule="nonzero"/></g></svg>