<svg xmlns="http://www.w3.org/2000/svg" width="375" viewBox="0 0 375 375" height="375" version="1.0"><defs><clipPath id="a"><path d="M 147 105.632812 L 214 105.632812 L 214 194.882812 L 147 194.882812 Z M 147 105.632812"/></clipPath><clipPath id="b"><path d="M 173 142 L 246.554688 142 L 246.554688 193 L 173 193 Z M 173 142"/></clipPath><clipPath id="c"><path d="M 128.804688 105.632812 L 185 105.632812 L 185 193 L 128.804688 193 Z M 128.804688 105.632812"/></clipPath></defs><g clip-path="url(#a)"><path fill="#FCBA03" d="M 197.800781 191.304688 C 196.589844 191.304688 195.605469 190.324219 195.605469 189.113281 C 195.605469 187.902344 196.589844 186.921875 197.800781 186.921875 C 199.015625 186.921875 200 187.902344 200 189.113281 C 200 190.324219 199.015625 191.304688 197.800781 191.304688 Z M 207.8125 129.738281 C 206.597656 129.738281 205.613281 128.757812 205.613281 127.546875 C 205.613281 126.339844 206.597656 125.355469 207.8125 125.355469 C 209.027344 125.355469 210.011719 126.339844 210.011719 127.546875 C 210.011719 128.757812 209.027344 129.738281 207.8125 129.738281 Z M 197.800781 183.355469 C 195.835938 183.355469 194.101562 184.335938 193.058594 185.832031 L 156.582031 185.789062 L 197.039062 115.277344 L 202.675781 124.917969 C 202.269531 125.707031 202.035156 126.601562 202.035156 127.546875 C 202.035156 130.726562 204.625 133.304688 207.8125 133.304688 C 211.003906 133.304688 213.589844 130.726562 213.589844 127.546875 C 213.589844 124.523438 211.25 122.046875 208.28125 121.8125 L 199.105469 106.652344 C 199.105469 106.652344 196.390625 103.988281 193.320312 109.304688 L 148.902344 186.128906 C 148.902344 186.128906 145.0625 191.722656 151.265625 192.015625 L 192.816406 192.015625 C 193.816406 193.722656 195.675781 194.871094 197.800781 194.871094 C 200.992188 194.871094 203.578125 192.292969 203.578125 189.113281 C 203.578125 185.933594 200.992188 183.355469 197.800781 183.355469 Z M 197.800781 183.355469"/></g><g clip-path="url(#b)"><path fill="#D9D9D9" d="M 194.574219 143.171875 C 199.632812 143.050781 216.472656 142.511719 219.222656 143.894531 C 220.773438 144.667969 222.660156 148.667969 223.613281 150.113281 C 229.59375 159.148438 245.46875 186.425781 245.46875 186.425781 C 245.46875 186.425781 248.714844 190.839844 243.988281 192.015625 L 218.59375 192.015625 C 218.59375 192.015625 217.117188 192.390625 215.347656 189.113281 L 205.011719 171.117188 L 180.667969 171.117188 L 180.664062 171.128906 L 173.628906 171.128906 C 177.421875 164.660156 185.121094 151.585938 190.355469 143.171875 Z M 194.574219 143.171875"/></g><g clip-path="url(#c)"><path fill="#FCBA03" d="M 134.625 188.566406 C 135.839844 188.566406 136.824219 187.585938 136.824219 186.375 C 136.824219 185.164062 135.839844 184.183594 134.625 184.183594 C 133.410156 184.183594 132.425781 185.164062 132.425781 186.375 C 132.425781 187.585938 133.410156 188.566406 134.625 188.566406 Z M 175.585938 116.191406 C 175.601562 116.203125 175.621094 116.21875 175.636719 116.230469 Z M 177.214844 116.925781 C 177.242188 116.929688 177.265625 116.9375 177.292969 116.945312 Z M 177.441406 116.976562 C 177.460938 116.980469 177.476562 116.984375 177.492188 116.988281 C 177.476562 116.984375 177.460938 116.980469 177.441406 116.976562 Z M 178.65625 117.105469 L 169.253906 133.492188 L 139.875 184.21875 L 139.871094 184.210938 C 140.128906 184.863281 140.269531 185.574219 140.269531 186.316406 C 140.269531 189.496094 137.683594 192.074219 134.492188 192.074219 C 132.367188 192.074219 130.507812 190.929688 129.507812 189.21875 L 129.453125 189.21875 C 128.957031 188.367188 128.671875 187.375 128.671875 186.316406 C 128.671875 185.097656 129.050781 183.96875 129.695312 183.035156 L 129.746094 183.035156 C 130.789062 181.539062 132.527344 180.558594 134.492188 180.558594 C 134.59375 180.558594 134.691406 180.5625 134.789062 180.566406 L 173.386719 113.804688 L 173.402344 113.839844 C 173.039062 113.085938 172.839844 112.238281 172.839844 111.347656 C 172.839844 110.128906 173.214844 109 173.859375 108.066406 L 173.914062 108.066406 C 174.957031 106.570312 176.691406 105.589844 178.65625 105.589844 C 181.847656 105.589844 184.433594 108.167969 184.433594 111.347656 C 184.433594 114.527344 181.847656 117.105469 178.65625 117.105469 Z M 139.859375 184.1875 C 139.847656 184.15625 139.835938 184.125 139.820312 184.09375 C 139.835938 184.125 139.847656 184.15625 139.859375 184.1875 Z M 139.808594 184.058594 C 139.792969 184.027344 139.78125 183.996094 139.765625 183.964844 C 139.78125 183.996094 139.792969 184.027344 139.808594 184.058594 Z M 139.757812 183.941406 C 139.738281 183.902344 139.722656 183.867188 139.703125 183.828125 C 139.722656 183.867188 139.738281 183.902344 139.757812 183.941406 Z M 139.691406 183.800781 C 139.675781 183.773438 139.660156 183.742188 139.644531 183.714844 C 139.660156 183.742188 139.675781 183.773438 139.691406 183.800781 Z M 139.628906 183.679688 C 139.613281 183.648438 139.59375 183.617188 139.578125 183.585938 C 139.59375 183.617188 139.613281 183.648438 139.628906 183.679688 Z M 139.570312 183.570312 C 139.550781 183.535156 139.53125 183.496094 139.507812 183.460938 C 139.53125 183.496094 139.550781 183.535156 139.570312 183.570312 Z M 139.492188 183.433594 C 139.476562 183.40625 139.460938 183.378906 139.445312 183.351562 C 139.460938 183.378906 139.476562 183.40625 139.492188 183.433594 Z M 139.425781 183.320312 C 139.402344 183.285156 139.382812 183.25 139.359375 183.21875 C 139.382812 183.25 139.402344 183.285156 139.425781 183.320312 Z M 139.359375 183.214844 C 139.335938 183.179688 139.3125 183.144531 139.289062 183.109375 C 139.3125 183.144531 139.335938 183.179688 139.359375 183.214844 Z M 139.269531 183.078125 C 139.253906 183.054688 139.234375 183.027344 139.214844 183.003906 C 139.234375 183.027344 139.253906 183.054688 139.269531 183.078125 Z M 139.195312 182.976562 C 139.171875 182.941406 139.148438 182.90625 139.125 182.875 C 139.148438 182.90625 139.171875 182.941406 139.195312 182.976562 Z M 139.113281 182.863281 C 139.09375 182.832031 139.070312 182.804688 139.046875 182.777344 C 139.070312 182.804688 139.09375 182.832031 139.113281 182.863281 Z M 139.023438 182.746094 C 139.003906 182.722656 138.984375 182.695312 138.964844 182.671875 C 138.984375 182.695312 139.003906 182.722656 139.023438 182.746094 Z M 138.945312 182.648438 C 138.917969 182.617188 138.890625 182.585938 138.863281 182.554688 C 138.890625 182.585938 138.917969 182.617188 138.945312 182.648438 Z M 138.847656 182.535156 C 138.828125 182.511719 138.804688 182.484375 138.78125 182.460938 C 138.804688 182.484375 138.828125 182.511719 138.847656 182.535156 Z M 138.753906 182.433594 C 138.734375 182.40625 138.710938 182.382812 138.6875 182.359375 C 138.710938 182.382812 138.734375 182.40625 138.753906 182.433594 Z M 138.671875 182.339844 C 138.640625 182.3125 138.613281 182.28125 138.582031 182.253906 C 138.613281 182.28125 138.640625 182.3125 138.671875 182.339844 Z M 138.5625 182.230469 C 138.539062 182.207031 138.515625 182.1875 138.492188 182.164062 C 138.515625 182.1875 138.539062 182.207031 138.5625 182.230469 Z M 138.464844 182.140625 C 138.4375 182.113281 138.410156 182.089844 138.382812 182.0625 C 138.410156 182.085938 138.4375 182.113281 138.464844 182.140625 Z M 138.375 182.054688 C 138.34375 182.027344 138.3125 182 138.28125 181.972656 C 138.3125 182 138.34375 182.027344 138.375 182.054688 Z M 138.253906 181.949219 C 138.230469 181.929688 138.207031 181.910156 138.183594 181.886719 C 138.207031 181.910156 138.230469 181.929688 138.253906 181.949219 Z M 138.058594 181.789062 C 138.027344 181.761719 137.992188 181.738281 137.960938 181.714844 C 137.992188 181.738281 138.027344 181.761719 138.058594 181.789062 Z M 137.929688 181.691406 C 137.90625 181.671875 137.878906 181.652344 137.855469 181.636719 C 137.878906 181.652344 137.90625 181.671875 137.929688 181.691406 Z M 137.828125 181.617188 C 137.792969 181.59375 137.761719 181.570312 137.726562 181.546875 C 137.757812 181.570312 137.792969 181.59375 137.828125 181.617188 Z M 137.707031 181.535156 C 137.679688 181.515625 137.648438 181.496094 137.621094 181.476562 C 137.648438 181.496094 137.679688 181.515625 137.707031 181.535156 Z M 137.589844 181.457031 C 137.5625 181.4375 137.53125 181.421875 137.503906 181.402344 C 137.53125 181.421875 137.558594 181.4375 137.589844 181.457031 Z M 137.480469 181.390625 C 137.445312 181.367188 137.410156 181.347656 137.375 181.328125 C 137.410156 181.347656 137.445312 181.367188 137.480469 181.390625 Z M 137.347656 181.3125 C 137.320312 181.296875 137.292969 181.28125 137.261719 181.265625 C 137.292969 181.28125 137.320312 181.296875 137.347656 181.3125 Z M 137.230469 181.246094 C 137.199219 181.230469 137.167969 181.214844 137.136719 181.199219 C 137.167969 181.214844 137.199219 181.230469 137.230469 181.246094 Z M 137.117188 181.1875 C 137.082031 181.167969 137.042969 181.148438 137.003906 181.132812 C 137.042969 181.148438 137.082031 181.167969 137.117188 181.1875 Z M 136.976562 181.117188 C 136.949219 181.105469 136.917969 181.089844 136.890625 181.078125 C 136.917969 181.089844 136.949219 181.105469 136.976562 181.117188 Z M 136.855469 181.0625 C 136.820312 181.046875 136.785156 181.03125 136.75 181.015625 C 136.785156 181.03125 136.820312 181.046875 136.855469 181.0625 Z M 136.738281 181.011719 C 136.699219 180.996094 136.660156 180.980469 136.621094 180.964844 C 136.660156 180.980469 136.699219 180.996094 136.738281 181.011719 Z M 136.589844 180.953125 C 136.558594 180.941406 136.527344 180.929688 136.5 180.917969 C 136.527344 180.929688 136.558594 180.941406 136.589844 180.953125 Z M 136.464844 180.90625 C 136.425781 180.890625 136.386719 180.875 136.347656 180.863281 C 136.386719 180.875 136.425781 180.890625 136.464844 180.90625 Z M 136.339844 180.859375 C 136.300781 180.847656 136.261719 180.835938 136.226562 180.824219 C 136.261719 180.835938 136.300781 180.847656 136.339844 180.859375 Z M 136.1875 180.8125 C 136.15625 180.804688 136.128906 180.792969 136.097656 180.785156 C 136.128906 180.792969 136.15625 180.804688 136.1875 180.8125 Z M 136.0625 180.777344 C 136.023438 180.765625 135.980469 180.753906 135.941406 180.742188 C 135.980469 180.753906 136.023438 180.765625 136.0625 180.777344 Z M 135.921875 180.738281 C 135.886719 180.726562 135.851562 180.71875 135.8125 180.710938 C 135.851562 180.71875 135.886719 180.726562 135.921875 180.738281 Z M 135.777344 180.703125 C 135.742188 180.695312 135.710938 180.6875 135.675781 180.679688 C 135.710938 180.6875 135.742188 180.695312 135.777344 180.703125 Z M 135.648438 180.675781 C 135.605469 180.667969 135.566406 180.660156 135.523438 180.652344 C 135.566406 180.660156 135.605469 180.667969 135.648438 180.675781 Z M 135.496094 180.648438 C 135.460938 180.640625 135.425781 180.636719 135.394531 180.628906 C 135.425781 180.636719 135.460938 180.640625 135.496094 180.648438 Z M 135.355469 180.625 C 135.316406 180.617188 135.28125 180.613281 135.242188 180.609375 C 135.28125 180.613281 135.316406 180.617188 135.355469 180.625 Z M 135.222656 180.605469 C 135.179688 180.601562 135.136719 180.59375 135.09375 180.589844 C 135.136719 180.59375 135.179688 180.601562 135.222656 180.605469 Z M 135.0625 180.585938 C 135.027344 180.585938 134.992188 180.582031 134.960938 180.578125 C 134.992188 180.582031 135.027344 180.585938 135.0625 180.585938 Z M 134.921875 180.574219 C 134.878906 180.574219 134.835938 180.570312 134.792969 180.566406 C 134.835938 180.570312 134.878906 180.574219 134.921875 180.574219 Z M 173.445312 113.933594 C 173.457031 113.957031 173.46875 113.980469 173.480469 114.003906 C 173.46875 113.980469 173.457031 113.957031 173.445312 113.933594 Z M 173.597656 114.21875 C 173.605469 114.226562 173.613281 114.238281 173.617188 114.25 Z M 178.65625 113.539062 C 179.871094 113.539062 180.855469 112.558594 180.855469 111.347656 C 180.855469 110.136719 179.871094 109.15625 178.65625 109.15625 C 177.445312 109.15625 176.460938 110.136719 176.460938 111.347656 C 176.460938 112.558594 177.445312 113.539062 178.65625 113.539062 Z M 178.65625 117.105469 C 178.625 117.105469 178.589844 117.105469 178.558594 117.105469 C 178.523438 117.105469 178.492188 117.105469 178.460938 117.101562 L 178.457031 117.101562 C 178.425781 117.101562 178.394531 117.101562 178.359375 117.097656 C 178.328125 117.097656 178.292969 117.09375 178.261719 117.09375 C 178.230469 117.089844 178.195312 117.085938 178.164062 117.085938 C 178.132812 117.082031 178.097656 117.078125 178.066406 117.074219 C 178.035156 117.074219 178.003906 117.070312 177.96875 117.066406 C 177.9375 117.0625 177.90625 117.058594 177.875 117.054688 L 177.871094 117.054688 C 177.839844 117.046875 177.808594 117.042969 177.777344 117.039062 C 177.746094 117.035156 177.714844 117.027344 177.683594 117.023438 L 177.679688 117.023438 C 177.648438 117.019531 177.617188 117.011719 177.585938 117.007812 C 177.554688 117 177.523438 116.996094 177.492188 116.988281 Z M 139.21875 181.90625 L 139.222656 181.90625 C 139.253906 181.933594 139.285156 181.957031 139.320312 181.984375 L 139.34375 182.003906 Z M 139.21875 181.90625"/></g><g fill="#FCBA03"><g><g><path d="M 0.46875 -19.171875 L 0.46875 -23.484375 L 13.171875 -23.484375 L 13.171875 -19.171875 L 9.359375 -19.171875 L 9.359375 0 L 4.28125 0 L 4.28125 -19.171875 Z M 0.46875 -19.171875" transform="translate(110.085 238.795)"/></g></g></g><g fill="#FCBA03"><g><g><path d="M 6.890625 -4.203125 L 12.515625 -4.203125 L 12.515625 0 L 1.8125 0 L 1.8125 -23.484375 L 12.515625 -23.484375 L 12.515625 -19.34375 L 6.890625 -19.34375 L 6.890625 -13.828125 L 12.15625 -13.828125 L 12.15625 -9.84375 L 6.890625 -9.84375 Z M 6.890625 -4.203125" transform="translate(123.219 238.795)"/></g></g></g><g fill="#FCBA03"><g><g><path d="M 10.5625 -3.84375 L 10.5625 -7.484375 L 15.390625 -7.484375 L 15.390625 -4.421875 C 15.390625 -1.234375 13.890625 0.359375 10.890625 0.359375 L 6.3125 0.359375 C 3.3125 0.359375 1.8125 -1.234375 1.8125 -4.421875 L 1.8125 -19.0625 C 1.8125 -22.25 3.3125 -23.84375 6.3125 -23.84375 L 10.890625 -23.84375 C 13.890625 -23.84375 15.390625 -22.25 15.390625 -19.0625 L 15.390625 -16.84375 L 10.5625 -16.84375 L 10.5625 -19.671875 C 10.5625 -19.867188 10.492188 -20.039062 10.359375 -20.1875 C 10.222656 -20.332031 10.0625 -20.40625 9.875 -20.40625 L 7.59375 -20.40625 C 7.394531 -20.40625 7.226562 -20.332031 7.09375 -20.1875 C 6.957031 -20.039062 6.890625 -19.867188 6.890625 -19.671875 L 6.890625 -3.84375 C 6.890625 -3.65625 6.957031 -3.488281 7.09375 -3.34375 C 7.226562 -3.195312 7.394531 -3.125 7.59375 -3.125 L 9.875 -3.125 C 10.0625 -3.125 10.222656 -3.195312 10.359375 -3.34375 C 10.492188 -3.488281 10.5625 -3.65625 10.5625 -3.84375 Z M 10.5625 -3.84375" transform="translate(136.316 238.795)"/></g></g></g><g fill="#FCBA03"><g><g><path d="M 6.890625 -9.21875 L 6.890625 0 L 1.8125 0 L 1.8125 -23.484375 L 6.890625 -23.484375 L 6.890625 -13.640625 L 10.921875 -13.640625 L 10.921875 -23.484375 L 16 -23.484375 L 16 0 L 10.921875 0 L 10.921875 -9.21875 Z M 6.890625 -9.21875" transform="translate(152.389 238.795)"/></g></g></g><g fill="#FCBA03"><g><g><path d="M 10.484375 -23.484375 L 14.984375 -23.484375 L 17.71875 -5.8125 L 19.75 -23.484375 L 24.6875 -23.484375 L 20.875 0 L 15.09375 0 L 12.734375 -14.40625 L 10.375 0 L 4.609375 0 L 0.796875 -23.484375 L 5.734375 -23.484375 L 7.765625 -5.8125 Z M 10.484375 -23.484375" transform="translate(176.443 238.795)"/></g></g></g><g fill="#FCBA03"><g><g><path d="M 15.640625 -19.0625 L 15.640625 -4.421875 C 15.640625 -1.234375 14.140625 0.359375 11.140625 0.359375 L 6.3125 0.359375 C 3.3125 0.359375 1.8125 -1.234375 1.8125 -4.421875 L 1.8125 -19.0625 C 1.8125 -22.25 3.3125 -23.84375 6.3125 -23.84375 L 11.140625 -23.84375 C 14.140625 -23.84375 15.640625 -22.25 15.640625 -19.0625 Z M 10.5625 -3.84375 L 10.5625 -19.671875 C 10.5625 -19.867188 10.492188 -20.039062 10.359375 -20.1875 C 10.222656 -20.332031 10.0625 -20.40625 9.875 -20.40625 L 7.59375 -20.40625 C 7.394531 -20.40625 7.226562 -20.332031 7.09375 -20.1875 C 6.957031 -20.039062 6.890625 -19.867188 6.890625 -19.671875 L 6.890625 -3.84375 C 6.890625 -3.65625 6.957031 -3.488281 7.09375 -3.34375 C 7.226562 -3.195312 7.394531 -3.125 7.59375 -3.125 L 9.875 -3.125 C 10.0625 -3.125 10.222656 -3.195312 10.359375 -3.34375 C 10.492188 -3.488281 10.5625 -3.65625 10.5625 -3.84375 Z M 10.5625 -3.84375" transform="translate(201.55 238.795)"/></g></g></g><g fill="#FCBA03"><g><g><path d="M 6.890625 -9.625 L 6.890625 0 L 1.8125 0 L 1.8125 -23.484375 L 10.859375 -23.484375 C 13.859375 -23.484375 15.359375 -21.882812 15.359375 -18.6875 L 15.359375 -15.96875 C 15.359375 -14.03125 14.664062 -12.796875 13.28125 -12.265625 C 14.488281 -11.828125 15.09375 -10.835938 15.09375 -9.296875 L 15.09375 0 L 10.015625 0 L 10.015625 -8.890625 C 10.015625 -9.378906 9.785156 -9.625 9.328125 -9.625 Z M 6.890625 -20.03125 L 6.890625 -13.171875 L 9.578125 -13.171875 C 9.773438 -13.171875 9.9375 -13.242188 10.0625 -13.390625 C 10.195312 -13.535156 10.265625 -13.707031 10.265625 -13.90625 L 10.265625 -19.3125 C 10.265625 -19.5 10.195312 -19.664062 10.0625 -19.8125 C 9.9375 -19.957031 9.773438 -20.03125 9.578125 -20.03125 Z M 6.890625 -20.03125" transform="translate(218.565 238.795)"/></g></g></g><g fill="#FCBA03"><g><g><path d="M 6.890625 -4.28125 L 12.453125 -4.28125 L 12.453125 0 L 1.8125 0 L 1.8125 -23.484375 L 6.890625 -23.484375 Z M 6.890625 -4.28125" transform="translate(234.819 238.795)"/></g></g></g><g fill="#FCBA03"><g><g><path d="M 11.140625 -23.484375 C 14.140625 -23.484375 15.640625 -21.882812 15.640625 -18.6875 L 15.640625 -4.796875 C 15.640625 -1.597656 14.140625 0 11.140625 0 L 1.8125 0 L 1.8125 -23.484375 Z M 10.5625 -4.203125 L 10.5625 -19.3125 C 10.5625 -19.5 10.492188 -19.664062 10.359375 -19.8125 C 10.222656 -19.957031 10.0625 -20.03125 9.875 -20.03125 L 6.890625 -20.03125 L 6.890625 -3.484375 L 9.875 -3.484375 C 10.0625 -3.484375 10.222656 -3.554688 10.359375 -3.703125 C 10.492188 -3.847656 10.5625 -4.015625 10.5625 -4.203125 Z M 10.5625 -4.203125" transform="translate(247.3 238.795)"/></g></g></g><g fill="#D9D9D9"><g><g><path d="M 3.28125 0.109375 C 2.300781 0.109375 1.570312 -0.164062 1.09375 -0.71875 C 0.625 -1.269531 0.390625 -2.09375 0.390625 -3.1875 L 0.390625 -11.875 L 2.703125 -11.875 L 2.703125 -3.28125 C 2.703125 -2.894531 2.738281 -2.597656 2.8125 -2.390625 C 2.882812 -2.179688 3.039062 -2.078125 3.28125 -2.078125 C 3.519531 -2.078125 3.675781 -2.179688 3.75 -2.390625 C 3.820312 -2.597656 3.859375 -2.894531 3.859375 -3.28125 L 3.859375 -11.875 L 6.171875 -11.875 L 6.171875 -3.1875 C 6.171875 -2.09375 5.929688 -1.269531 5.453125 -0.71875 C 4.984375 -0.164062 4.257812 0.109375 3.28125 0.109375 Z M 3.28125 0.109375" transform="translate(153.157 266.956)"/></g></g></g><g fill="#D9D9D9"><g><g><path d="M 0.53125 -11.875 L 3.671875 -11.875 C 4.617188 -11.875 5.296875 -11.566406 5.703125 -10.953125 C 6.109375 -10.347656 6.3125 -9.453125 6.3125 -8.265625 C 6.3125 -7.085938 6.128906 -6.195312 5.765625 -5.59375 C 5.410156 -5 4.765625 -4.703125 3.828125 -4.703125 L 2.859375 -4.703125 L 2.859375 0 L 0.53125 0 Z M 3 -6.84375 C 3.28125 -6.84375 3.488281 -6.894531 3.625 -7 C 3.757812 -7.101562 3.847656 -7.253906 3.890625 -7.453125 C 3.929688 -7.648438 3.953125 -7.9375 3.953125 -8.3125 C 3.953125 -8.8125 3.894531 -9.171875 3.78125 -9.390625 C 3.675781 -9.609375 3.457031 -9.71875 3.125 -9.71875 L 2.859375 -9.71875 L 2.859375 -6.84375 Z M 3 -6.84375" transform="translate(163.799 266.956)"/></g></g></g><g fill="#D9D9D9"><g><g><path d="M 0.53125 -11.875 L 3.796875 -11.875 C 4.648438 -11.875 5.285156 -11.640625 5.703125 -11.171875 C 6.128906 -10.703125 6.347656 -10.003906 6.359375 -9.078125 L 6.390625 -3.53125 C 6.398438 -2.351562 6.195312 -1.46875 5.78125 -0.875 C 5.363281 -0.289062 4.675781 0 3.71875 0 L 0.53125 0 Z M 3.328125 -2.109375 C 3.765625 -2.109375 3.984375 -2.316406 3.984375 -2.734375 L 3.984375 -8.859375 C 3.984375 -9.128906 3.960938 -9.332031 3.921875 -9.46875 C 3.878906 -9.601562 3.800781 -9.691406 3.6875 -9.734375 C 3.582031 -9.773438 3.414062 -9.796875 3.1875 -9.796875 L 2.921875 -9.796875 L 2.921875 -2.109375 Z M 3.328125 -2.109375" transform="translate(174.413 266.956)"/></g></g></g><g fill="#D9D9D9"><g><g><path d="M 0.203125 0 L 1.359375 -11.875 L 5.375 -11.875 L 6.515625 0 L 4.265625 0 L 4.09375 -1.921875 L 2.65625 -1.921875 L 2.515625 0 Z M 2.828125 -3.8125 L 3.90625 -3.8125 L 3.390625 -9.859375 L 3.28125 -9.859375 Z M 2.828125 -3.8125" transform="translate(185.317 266.956)"/></g></g></g><g fill="#D9D9D9"><g><g><path d="M 1.546875 0 L 1.546875 -9.59375 L 0.140625 -9.59375 L 0.140625 -11.875 L 5.34375 -11.875 L 5.34375 -9.59375 L 3.921875 -9.59375 L 3.921875 0 Z M 1.546875 0" transform="translate(196.11 266.956)"/></g></g></g><g fill="#D9D9D9"><g><g><path d="M 0.53125 0 L 0.53125 -11.875 L 5.28125 -11.875 L 5.28125 -9.578125 L 2.953125 -9.578125 L 2.953125 -7.28125 L 5.1875 -7.28125 L 5.1875 -5.03125 L 2.953125 -5.03125 L 2.953125 -2.3125 L 5.4375 -2.3125 L 5.4375 0 Z M 0.53125 0" transform="translate(205.675 266.956)"/></g></g></g><g fill="#D9D9D9"><g><g><path d="M 3.34375 0.109375 C 2.269531 0.109375 1.492188 -0.15625 1.015625 -0.6875 C 0.535156 -1.226562 0.296875 -2.09375 0.296875 -3.28125 L 0.296875 -4.4375 L 2.625 -4.4375 L 2.625 -2.953125 C 2.625 -2.367188 2.8125 -2.078125 3.1875 -2.078125 C 3.40625 -2.078125 3.554688 -2.140625 3.640625 -2.265625 C 3.722656 -2.390625 3.765625 -2.597656 3.765625 -2.890625 C 3.765625 -3.273438 3.71875 -3.59375 3.625 -3.84375 C 3.53125 -4.101562 3.410156 -4.316406 3.265625 -4.484375 C 3.128906 -4.660156 2.875 -4.925781 2.5 -5.28125 L 1.484375 -6.3125 C 0.691406 -7.082031 0.296875 -7.9375 0.296875 -8.875 C 0.296875 -9.894531 0.523438 -10.664062 0.984375 -11.1875 C 1.453125 -11.71875 2.132812 -11.984375 3.03125 -11.984375 C 4.09375 -11.984375 4.859375 -11.695312 5.328125 -11.125 C 5.804688 -10.5625 6.046875 -9.679688 6.046875 -8.484375 L 3.625 -8.484375 L 3.609375 -9.296875 C 3.609375 -9.453125 3.5625 -9.570312 3.46875 -9.65625 C 3.382812 -9.75 3.265625 -9.796875 3.109375 -9.796875 C 2.921875 -9.796875 2.78125 -9.742188 2.6875 -9.640625 C 2.601562 -9.546875 2.5625 -9.410156 2.5625 -9.234375 C 2.5625 -8.847656 2.78125 -8.445312 3.21875 -8.03125 L 4.609375 -6.703125 C 4.929688 -6.390625 5.195312 -6.09375 5.40625 -5.8125 C 5.613281 -5.53125 5.78125 -5.195312 5.90625 -4.8125 C 6.039062 -4.4375 6.109375 -3.984375 6.109375 -3.453125 C 6.109375 -2.285156 5.894531 -1.398438 5.46875 -0.796875 C 5.039062 -0.191406 4.332031 0.109375 3.34375 0.109375 Z M 3.34375 0.109375" transform="translate(215.46 266.956)"/></g></g></g></svg>