<svg xmlns="http://www.w3.org/2000/svg" xmlns:xlink="http://www.w3.org/1999/xlink" width="400" zoomAndPan="magnify" viewBox="0 0 300 74.999997" height="100" preserveAspectRatio="xMidYMid meet" version="1.0"><defs><g><g id="id1"/><g id="id2"/></g><clipPath id="id3"><path d="M 19 6.417969 L 66 6.417969 L 66 68.667969 L 19 68.667969 Z M 19 6.417969 " clip-rule="nonzero"/></clipPath><clipPath id="id4"><path d="M 37 32 L 88.222656 32 L 88.222656 67 L 37 67 Z M 37 32 " clip-rule="nonzero"/></clipPath><clipPath id="id5"><path d="M 6.472656 6.417969 L 46 6.417969 L 46 67 L 6.472656 67 Z M 6.472656 6.417969 " clip-rule="nonzero"/></clipPath></defs><g clip-path="url(#id3)"><path fill="rgb(98.81897%, 72.938538%, 1.179504%)" d="M 54.371094 66.175781 C 53.53125 66.175781 52.847656 65.492188 52.847656 64.648438 C 52.847656 63.800781 53.53125 63.117188 54.371094 63.117188 C 55.214844 63.117188 55.898438 63.800781 55.898438 64.648438 C 55.898438 65.492188 55.214844 66.175781 54.371094 66.175781 Z M 61.324219 23.230469 C 60.480469 23.230469 59.796875 22.546875 59.796875 21.699219 C 59.796875 20.855469 60.480469 20.171875 61.324219 20.171875 C 62.167969 20.171875 62.847656 20.855469 62.847656 21.699219 C 62.847656 22.546875 62.167969 23.230469 61.324219 23.230469 Z M 54.371094 60.628906 C 53.007812 60.628906 51.800781 61.3125 51.078125 62.359375 L 25.753906 62.328125 L 53.839844 13.140625 L 57.753906 19.867188 C 57.472656 20.417969 57.3125 21.039062 57.3125 21.699219 C 57.3125 23.917969 59.109375 25.71875 61.324219 25.71875 C 63.539062 25.71875 65.332031 23.917969 65.332031 21.699219 C 65.332031 19.59375 63.710938 17.863281 61.648438 17.699219 L 55.277344 7.125 C 55.277344 7.125 53.394531 5.265625 51.261719 8.972656 L 20.421875 62.566406 C 20.421875 62.566406 17.757812 66.46875 22.0625 66.671875 L 50.910156 66.671875 C 51.605469 67.863281 52.894531 68.664062 54.371094 68.664062 C 56.585938 68.664062 58.382812 66.863281 58.382812 64.648438 C 58.382812 62.429688 56.585938 60.628906 54.371094 60.628906 Z M 54.371094 60.628906 " fill-opacity="1" fill-rule="nonzero"/></g><g clip-path="url(#id4)"><path fill="rgb(85.099792%, 85.099792%, 85.099792%)" d="M 52.132812 32.597656 C 55.644531 32.515625 67.332031 32.140625 69.246094 33.101562 C 70.320312 33.644531 71.632812 36.433594 72.292969 37.441406 C 76.441406 43.746094 87.464844 62.769531 87.464844 62.769531 C 87.464844 62.769531 89.71875 65.851562 86.4375 66.671875 L 68.808594 66.671875 C 68.808594 66.671875 67.78125 66.933594 66.550781 64.648438 L 59.378906 52.09375 L 42.476562 52.09375 L 42.472656 52.101562 L 37.589844 52.101562 C 40.222656 47.585938 45.570312 38.46875 49.203125 32.597656 Z M 52.132812 32.597656 " fill-opacity="1" fill-rule="nonzero"/></g><g clip-path="url(#id5)"><path fill="rgb(98.81897%, 72.938538%, 1.179504%)" d="M 10.511719 64.265625 C 11.355469 64.265625 12.039062 63.578125 12.039062 62.734375 C 12.039062 61.890625 11.355469 61.207031 10.511719 61.207031 C 9.667969 61.207031 8.984375 61.890625 8.984375 62.734375 C 8.984375 63.578125 9.667969 64.265625 10.511719 64.265625 Z M 38.949219 13.78125 C 38.960938 13.789062 38.972656 13.796875 38.984375 13.804688 Z M 40.078125 14.289062 C 40.097656 14.292969 40.117188 14.300781 40.132812 14.304688 Z M 40.238281 14.328125 C 40.25 14.328125 40.261719 14.332031 40.273438 14.335938 C 40.261719 14.332031 40.25 14.328125 40.238281 14.328125 Z M 41.082031 14.417969 L 34.550781 25.847656 L 14.15625 61.230469 L 14.152344 61.226562 C 14.332031 61.683594 14.429688 62.175781 14.429688 62.695312 C 14.429688 64.914062 12.632812 66.710938 10.417969 66.710938 C 8.941406 66.710938 7.652344 65.910156 6.957031 64.722656 L 6.921875 64.722656 C 6.578125 64.125 6.378906 63.433594 6.378906 62.695312 C 6.378906 61.847656 6.640625 61.058594 7.085938 60.40625 L 7.125 60.40625 C 7.847656 59.363281 9.054688 58.679688 10.417969 58.679688 C 10.488281 58.679688 10.558594 58.679688 10.625 58.683594 L 37.421875 12.113281 L 37.433594 12.136719 C 37.183594 11.613281 37.042969 11.023438 37.042969 10.398438 C 37.042969 9.550781 37.304688 8.761719 37.75 8.109375 L 37.785156 8.109375 C 38.511719 7.066406 39.714844 6.382812 41.082031 6.382812 C 43.296875 6.382812 45.089844 8.183594 45.089844 10.398438 C 45.089844 12.617188 43.296875 14.417969 41.082031 14.417969 Z M 14.144531 61.210938 C 14.136719 61.1875 14.128906 61.167969 14.117188 61.144531 C 14.128906 61.167969 14.136719 61.1875 14.144531 61.210938 Z M 14.109375 61.121094 C 14.101562 61.097656 14.089844 61.078125 14.082031 61.054688 C 14.089844 61.078125 14.101562 61.097656 14.109375 61.121094 Z M 14.074219 61.039062 C 14.0625 61.011719 14.050781 60.984375 14.035156 60.960938 C 14.050781 60.984375 14.0625 61.011719 14.074219 61.039062 Z M 14.027344 60.941406 C 14.015625 60.921875 14.007812 60.898438 13.996094 60.878906 C 14.007812 60.898438 14.015625 60.921875 14.027344 60.941406 Z M 13.984375 60.855469 C 13.972656 60.835938 13.960938 60.8125 13.949219 60.789062 C 13.960938 60.8125 13.972656 60.835938 13.984375 60.855469 Z M 13.945312 60.78125 C 13.929688 60.753906 13.917969 60.726562 13.902344 60.703125 C 13.917969 60.730469 13.929688 60.753906 13.945312 60.78125 Z M 13.890625 60.683594 C 13.878906 60.664062 13.867188 60.644531 13.855469 60.625 C 13.867188 60.644531 13.878906 60.664062 13.890625 60.683594 Z M 13.84375 60.605469 C 13.828125 60.582031 13.8125 60.558594 13.800781 60.535156 C 13.8125 60.558594 13.828125 60.582031 13.84375 60.605469 Z M 13.796875 60.53125 C 13.78125 60.507812 13.765625 60.484375 13.75 60.457031 C 13.765625 60.484375 13.78125 60.507812 13.796875 60.53125 Z M 13.734375 60.4375 C 13.722656 60.417969 13.710938 60.402344 13.699219 60.382812 C 13.710938 60.402344 13.722656 60.417969 13.734375 60.4375 Z M 13.683594 60.363281 C 13.667969 60.339844 13.652344 60.316406 13.632812 60.292969 C 13.652344 60.316406 13.667969 60.339844 13.683594 60.363281 Z M 13.628906 60.285156 C 13.613281 60.265625 13.597656 60.246094 13.582031 60.226562 C 13.597656 60.246094 13.613281 60.265625 13.628906 60.285156 Z M 13.566406 60.207031 C 13.550781 60.1875 13.535156 60.167969 13.523438 60.152344 C 13.535156 60.167969 13.550781 60.1875 13.566406 60.207031 Z M 13.507812 60.136719 C 13.492188 60.113281 13.472656 60.09375 13.453125 60.070312 C 13.472656 60.09375 13.492188 60.113281 13.507812 60.136719 Z M 13.441406 60.058594 C 13.425781 60.039062 13.414062 60.023438 13.394531 60.003906 C 13.414062 60.023438 13.425781 60.039062 13.441406 60.058594 Z M 13.378906 59.984375 C 13.363281 59.96875 13.347656 59.953125 13.332031 59.933594 C 13.347656 59.953125 13.363281 59.96875 13.378906 59.984375 Z M 13.320312 59.921875 C 13.300781 59.902344 13.28125 59.878906 13.257812 59.859375 C 13.28125 59.878906 13.300781 59.902344 13.320312 59.921875 Z M 13.242188 59.84375 C 13.226562 59.828125 13.210938 59.8125 13.195312 59.796875 C 13.210938 59.8125 13.226562 59.828125 13.242188 59.84375 Z M 13.175781 59.78125 C 13.160156 59.761719 13.140625 59.746094 13.121094 59.726562 C 13.140625 59.746094 13.160156 59.761719 13.175781 59.78125 Z M 13.113281 59.722656 C 13.09375 59.703125 13.070312 59.683594 13.050781 59.664062 C 13.070312 59.683594 13.09375 59.703125 13.113281 59.722656 Z M 13.03125 59.648438 C 13.015625 59.632812 13 59.621094 12.980469 59.605469 C 12.996094 59.621094 13.015625 59.632812 13.03125 59.648438 Z M 12.894531 59.535156 C 12.871094 59.519531 12.847656 59.5 12.828125 59.484375 C 12.847656 59.5 12.871094 59.519531 12.894531 59.535156 Z M 12.804688 59.46875 C 12.789062 59.457031 12.769531 59.441406 12.753906 59.429688 C 12.769531 59.441406 12.789062 59.457031 12.804688 59.46875 Z M 12.734375 59.417969 C 12.710938 59.398438 12.6875 59.382812 12.664062 59.367188 C 12.6875 59.382812 12.710938 59.398438 12.734375 59.417969 Z M 12.652344 59.359375 C 12.632812 59.34375 12.609375 59.332031 12.589844 59.320312 C 12.609375 59.332031 12.632812 59.34375 12.652344 59.359375 Z M 12.566406 59.304688 C 12.550781 59.292969 12.53125 59.28125 12.511719 59.269531 C 12.53125 59.28125 12.546875 59.292969 12.566406 59.304688 Z M 12.492188 59.257812 C 12.46875 59.242188 12.445312 59.230469 12.417969 59.214844 C 12.445312 59.230469 12.46875 59.242188 12.492188 59.257812 Z M 12.402344 59.203125 C 12.382812 59.191406 12.363281 59.183594 12.34375 59.171875 C 12.363281 59.183594 12.382812 59.191406 12.402344 59.203125 Z M 12.320312 59.160156 C 12.296875 59.148438 12.277344 59.136719 12.253906 59.125 C 12.277344 59.136719 12.296875 59.148438 12.320312 59.160156 Z M 12.242188 59.117188 C 12.214844 59.105469 12.1875 59.089844 12.164062 59.078125 C 12.191406 59.089844 12.214844 59.105469 12.242188 59.117188 Z M 12.144531 59.070312 C 12.125 59.058594 12.101562 59.050781 12.082031 59.039062 C 12.101562 59.050781 12.125 59.058594 12.144531 59.070312 Z M 12.058594 59.03125 C 12.035156 59.019531 12.011719 59.007812 11.988281 59 C 12.011719 59.007812 12.035156 59.019531 12.058594 59.03125 Z M 11.976562 58.996094 C 11.953125 58.984375 11.925781 58.972656 11.898438 58.960938 C 11.925781 58.972656 11.953125 58.984375 11.976562 58.996094 Z M 11.875 58.953125 C 11.855469 58.945312 11.832031 58.9375 11.8125 58.929688 C 11.832031 58.9375 11.855469 58.945312 11.875 58.953125 Z M 11.789062 58.921875 C 11.761719 58.910156 11.734375 58.898438 11.707031 58.890625 C 11.734375 58.898438 11.761719 58.910156 11.789062 58.921875 Z M 11.699219 58.890625 C 11.675781 58.878906 11.648438 58.871094 11.621094 58.863281 C 11.648438 58.871094 11.675781 58.878906 11.699219 58.890625 Z M 11.597656 58.855469 C 11.574219 58.847656 11.554688 58.84375 11.53125 58.835938 C 11.554688 58.84375 11.574219 58.847656 11.597656 58.855469 Z M 11.507812 58.828125 C 11.480469 58.820312 11.453125 58.8125 11.425781 58.808594 C 11.453125 58.8125 11.480469 58.820312 11.507812 58.828125 Z M 11.410156 58.804688 C 11.386719 58.796875 11.359375 58.792969 11.335938 58.785156 C 11.359375 58.789062 11.386719 58.796875 11.410156 58.804688 Z M 11.3125 58.78125 C 11.289062 58.773438 11.265625 58.769531 11.242188 58.765625 C 11.265625 58.769531 11.289062 58.773438 11.3125 58.78125 Z M 11.222656 58.761719 C 11.191406 58.753906 11.164062 58.75 11.132812 58.742188 C 11.164062 58.75 11.191406 58.753906 11.222656 58.761719 Z M 11.113281 58.738281 C 11.089844 58.734375 11.066406 58.730469 11.042969 58.726562 C 11.066406 58.730469 11.089844 58.734375 11.113281 58.738281 Z M 11.015625 58.722656 C 10.992188 58.71875 10.964844 58.714844 10.941406 58.714844 C 10.964844 58.714844 10.992188 58.71875 11.015625 58.722656 Z M 10.925781 58.710938 C 10.898438 58.707031 10.867188 58.703125 10.835938 58.699219 C 10.867188 58.703125 10.898438 58.707031 10.925781 58.710938 Z M 10.8125 58.699219 C 10.789062 58.695312 10.765625 58.695312 10.742188 58.691406 C 10.765625 58.695312 10.789062 58.695312 10.8125 58.699219 Z M 10.714844 58.691406 C 10.6875 58.6875 10.65625 58.6875 10.628906 58.683594 C 10.65625 58.6875 10.6875 58.6875 10.714844 58.691406 Z M 37.464844 12.203125 C 37.472656 12.21875 37.480469 12.234375 37.488281 12.253906 C 37.480469 12.234375 37.472656 12.21875 37.464844 12.203125 Z M 37.570312 12.402344 C 37.574219 12.410156 37.578125 12.417969 37.582031 12.425781 Z M 41.082031 11.929688 C 41.925781 11.929688 42.609375 11.246094 42.609375 10.398438 C 42.609375 9.554688 41.925781 8.871094 41.082031 8.871094 C 40.238281 8.871094 39.554688 9.554688 39.554688 10.398438 C 39.554688 11.246094 40.238281 11.929688 41.082031 11.929688 Z M 41.082031 14.417969 C 41.058594 14.417969 41.035156 14.417969 41.011719 14.414062 C 40.988281 14.414062 40.964844 14.414062 40.945312 14.414062 L 40.941406 14.414062 C 40.917969 14.414062 40.898438 14.414062 40.875 14.410156 C 40.851562 14.410156 40.828125 14.410156 40.808594 14.40625 L 40.804688 14.40625 C 40.785156 14.40625 40.761719 14.402344 40.738281 14.402344 C 40.714844 14.398438 40.695312 14.398438 40.671875 14.394531 C 40.648438 14.394531 40.625 14.390625 40.605469 14.386719 L 40.601562 14.386719 C 40.582031 14.386719 40.558594 14.382812 40.535156 14.378906 C 40.515625 14.375 40.492188 14.375 40.46875 14.371094 C 40.449219 14.367188 40.425781 14.363281 40.40625 14.359375 L 40.402344 14.359375 C 40.382812 14.355469 40.359375 14.351562 40.339844 14.347656 L 40.335938 14.347656 C 40.316406 14.34375 40.292969 14.339844 40.273438 14.335938 Z M 13.699219 59.617188 L 13.703125 59.617188 C 13.726562 59.636719 13.746094 59.65625 13.769531 59.671875 L 13.789062 59.6875 Z M 13.699219 59.617188 " fill-opacity="1" fill-rule="nonzero"/></g><g fill="rgb(98.81897%, 72.938538%, 1.179504%)" fill-opacity="1"><g transform="translate(98.664586, 43.683299)"><g><path d="M 0.515625 -21.03125 L 0.515625 -25.78125 L 14.46875 -25.78125 L 14.46875 -21.03125 L 10.28125 -21.03125 L 10.28125 0 L 4.703125 0 L 4.703125 -21.03125 Z M 0.515625 -21.03125 "/></g></g></g><g fill="rgb(98.81897%, 72.938538%, 1.179504%)" fill-opacity="1"><g transform="translate(113.083582, 43.683299)"><g><path d="M 7.578125 -4.625 L 13.75 -4.625 L 13.75 0 L 2 0 L 2 -25.78125 L 13.75 -25.78125 L 13.75 -21.234375 L 7.578125 -21.234375 L 7.578125 -15.1875 L 13.34375 -15.1875 L 13.34375 -10.796875 L 7.578125 -10.796875 Z M 7.578125 -4.625 "/></g></g></g><g fill="rgb(98.81897%, 72.938538%, 1.179504%)" fill-opacity="1"><g transform="translate(127.462742, 43.683299)"><g><path d="M 11.59375 -4.21875 L 11.59375 -8.203125 L 16.890625 -8.203125 L 16.890625 -4.859375 C 16.890625 -1.347656 15.242188 0.40625 11.953125 0.40625 L 6.9375 0.40625 C 3.644531 0.40625 2 -1.347656 2 -4.859375 L 2 -20.921875 C 2 -24.421875 3.644531 -26.171875 6.9375 -26.171875 L 11.953125 -26.171875 C 15.242188 -26.171875 16.890625 -24.421875 16.890625 -20.921875 L 16.890625 -18.484375 L 11.59375 -18.484375 L 11.59375 -21.59375 C 11.59375 -21.8125 11.519531 -22 11.375 -22.15625 C 11.226562 -22.3125 11.050781 -22.390625 10.84375 -22.390625 L 8.328125 -22.390625 C 8.117188 -22.390625 7.941406 -22.3125 7.796875 -22.15625 C 7.648438 -22 7.578125 -21.8125 7.578125 -21.59375 L 7.578125 -4.21875 C 7.578125 -4.007812 7.648438 -3.820312 7.796875 -3.65625 C 7.941406 -3.5 8.117188 -3.421875 8.328125 -3.421875 L 10.84375 -3.421875 C 11.050781 -3.421875 11.226562 -3.5 11.375 -3.65625 C 11.519531 -3.820312 11.59375 -4.007812 11.59375 -4.21875 Z M 11.59375 -4.21875 "/></g></g></g><g fill="rgb(98.81897%, 72.938538%, 1.179504%)" fill-opacity="1"><g transform="translate(145.108137, 43.683299)"><g><path d="M 7.578125 -10.125 L 7.578125 0 L 2 0 L 2 -25.78125 L 7.578125 -25.78125 L 7.578125 -14.984375 L 12 -14.984375 L 12 -25.78125 L 17.578125 -25.78125 L 17.578125 0 L 12 0 L 12 -10.125 Z M 7.578125 -10.125 "/></g></g></g><g fill="rgb(98.81897%, 72.938538%, 1.179504%)" fill-opacity="1"><g transform="translate(164.067988, 43.683299)"><g/></g></g><g fill="rgb(98.81897%, 72.938538%, 1.179504%)" fill-opacity="1"><g transform="translate(171.516375, 43.683299)"><g><path d="M 11.515625 -25.78125 L 16.453125 -25.78125 L 19.4375 -6.375 L 21.671875 -25.78125 L 27.09375 -25.78125 L 22.90625 0 L 16.578125 0 L 13.984375 -15.8125 L 11.390625 0 L 5.0625 0 L 0.875 -25.78125 L 6.296875 -25.78125 L 8.53125 -6.375 Z M 11.515625 -25.78125 "/></g></g></g><g fill="rgb(98.81897%, 72.938538%, 1.179504%)" fill-opacity="1"><g transform="translate(199.079948, 43.683299)"><g><path d="M 17.171875 -20.921875 L 17.171875 -4.859375 C 17.171875 -1.347656 15.523438 0.40625 12.234375 0.40625 L 6.9375 0.40625 C 3.644531 0.40625 2 -1.347656 2 -4.859375 L 2 -20.921875 C 2 -24.421875 3.644531 -26.171875 6.9375 -26.171875 L 12.234375 -26.171875 C 15.523438 -26.171875 17.171875 -24.421875 17.171875 -20.921875 Z M 11.59375 -4.21875 L 11.59375 -21.59375 C 11.59375 -21.8125 11.519531 -22 11.375 -22.15625 C 11.226562 -22.3125 11.050781 -22.390625 10.84375 -22.390625 L 8.328125 -22.390625 C 8.117188 -22.390625 7.941406 -22.3125 7.796875 -22.15625 C 7.648438 -22 7.578125 -21.8125 7.578125 -21.59375 L 7.578125 -4.21875 C 7.578125 -4.007812 7.648438 -3.820312 7.796875 -3.65625 C 7.941406 -3.5 8.117188 -3.421875 8.328125 -3.421875 L 10.84375 -3.421875 C 11.050781 -3.421875 11.226562 -3.5 11.375 -3.65625 C 11.519531 -3.820312 11.59375 -4.007812 11.59375 -4.21875 Z M 11.59375 -4.21875 "/></g></g></g><g fill="rgb(98.81897%, 72.938538%, 1.179504%)" fill-opacity="1"><g transform="translate(217.760973, 43.683299)"><g><path d="M 7.578125 -10.5625 L 7.578125 0 L 2 0 L 2 -25.78125 L 11.90625 -25.78125 C 15.207031 -25.78125 16.859375 -24.023438 16.859375 -20.515625 L 16.859375 -17.53125 C 16.859375 -15.40625 16.097656 -14.050781 14.578125 -13.46875 C 15.910156 -12.988281 16.578125 -11.898438 16.578125 -10.203125 L 16.578125 0 L 11 0 L 11 -9.765625 C 11 -10.296875 10.742188 -10.5625 10.234375 -10.5625 Z M 7.578125 -22 L 7.578125 -14.46875 L 10.515625 -14.46875 C 10.734375 -14.46875 10.914062 -14.546875 11.0625 -14.703125 C 11.207031 -14.859375 11.28125 -15.046875 11.28125 -15.265625 L 11.28125 -21.203125 C 11.28125 -21.410156 11.207031 -21.59375 11.0625 -21.75 C 10.914062 -21.914062 10.734375 -22 10.515625 -22 Z M 7.578125 -22 "/></g></g></g><g fill="rgb(98.81897%, 72.938538%, 1.179504%)" fill-opacity="1"><g transform="translate(235.605527, 43.683299)"><g><path d="M 7.578125 -4.703125 L 13.671875 -4.703125 L 13.671875 0 L 2 0 L 2 -25.78125 L 7.578125 -25.78125 Z M 7.578125 -4.703125 "/></g></g></g><g fill="rgb(98.81897%, 72.938538%, 1.179504%)" fill-opacity="1"><g transform="translate(249.307548, 43.683299)"><g><path d="M 12.234375 -25.78125 C 15.523438 -25.78125 17.171875 -24.023438 17.171875 -20.515625 L 17.171875 -5.265625 C 17.171875 -1.753906 15.523438 0 12.234375 0 L 2 0 L 2 -25.78125 Z M 11.59375 -4.625 L 11.59375 -21.203125 C 11.59375 -21.410156 11.519531 -21.59375 11.375 -21.75 C 11.226562 -21.914062 11.050781 -22 10.84375 -22 L 7.578125 -22 L 7.578125 -3.828125 L 10.84375 -3.828125 C 11.050781 -3.828125 11.226562 -3.90625 11.375 -4.0625 C 11.519531 -4.21875 11.59375 -4.40625 11.59375 -4.625 Z M 11.59375 -4.625 "/></g></g></g><g fill="rgb(98.81897%, 72.938538%, 1.179504%)" fill-opacity="1"><g transform="translate(268.023951, 43.683299)"><g/></g></g><g fill="rgb(85.099792%, 85.099792%, 85.099792%)" fill-opacity="1"><g transform="translate(155.646069, 66.355662)"><g><path d="M 3.03125 0.109375 C 2.125 0.109375 1.453125 -0.144531 1.015625 -0.65625 C 0.578125 -1.175781 0.359375 -1.9375 0.359375 -2.9375 L 0.359375 -10.96875 L 2.484375 -10.96875 L 2.484375 -3.03125 C 2.484375 -2.675781 2.515625 -2.398438 2.578125 -2.203125 C 2.648438 -2.015625 2.800781 -1.921875 3.03125 -1.921875 C 3.25 -1.921875 3.390625 -2.015625 3.453125 -2.203125 C 3.523438 -2.390625 3.5625 -2.664062 3.5625 -3.03125 L 3.5625 -10.96875 L 5.6875 -10.96875 L 5.6875 -2.9375 C 5.6875 -1.9375 5.46875 -1.175781 5.03125 -0.65625 C 4.59375 -0.144531 3.925781 0.109375 3.03125 0.109375 Z M 3.03125 0.109375 "/></g></g></g><g fill="rgb(85.099792%, 85.099792%, 85.099792%)" fill-opacity="1"><g transform="translate(165.477558, 66.355662)"><g><path d="M 0.484375 -10.96875 L 3.390625 -10.96875 C 4.265625 -10.96875 4.890625 -10.679688 5.265625 -10.109375 C 5.640625 -9.546875 5.828125 -8.722656 5.828125 -7.640625 C 5.828125 -6.546875 5.660156 -5.722656 5.328125 -5.171875 C 4.992188 -4.617188 4.394531 -4.34375 3.53125 -4.34375 L 2.640625 -4.34375 L 2.640625 0 L 0.484375 0 Z M 2.765625 -6.3125 C 3.035156 -6.3125 3.226562 -6.359375 3.34375 -6.453125 C 3.46875 -6.554688 3.550781 -6.695312 3.59375 -6.875 C 3.632812 -7.0625 3.65625 -7.328125 3.65625 -7.671875 C 3.65625 -8.128906 3.601562 -8.457031 3.5 -8.65625 C 3.394531 -8.863281 3.191406 -8.96875 2.890625 -8.96875 L 2.640625 -8.96875 L 2.640625 -6.3125 Z M 2.765625 -6.3125 "/></g></g></g><g fill="rgb(85.099792%, 85.099792%, 85.099792%)" fill-opacity="1"><g transform="translate(175.283518, 66.355662)"><g><path d="M 0.484375 -10.96875 L 3.515625 -10.96875 C 4.296875 -10.96875 4.878906 -10.75 5.265625 -10.3125 C 5.660156 -9.875 5.863281 -9.234375 5.875 -8.390625 L 5.890625 -3.25 C 5.898438 -2.175781 5.710938 -1.363281 5.328125 -0.8125 C 4.953125 -0.269531 4.320312 0 3.4375 0 L 0.484375 0 Z M 3.078125 -1.9375 C 3.472656 -1.9375 3.671875 -2.132812 3.671875 -2.53125 L 3.671875 -8.1875 C 3.671875 -8.425781 3.648438 -8.609375 3.609375 -8.734375 C 3.578125 -8.859375 3.507812 -8.941406 3.40625 -8.984375 C 3.300781 -9.023438 3.144531 -9.046875 2.9375 -9.046875 L 2.6875 -9.046875 L 2.6875 -1.9375 Z M 3.078125 -1.9375 "/></g></g></g><g fill="rgb(85.099792%, 85.099792%, 85.099792%)" fill-opacity="1"><g transform="translate(185.357543, 66.355662)"><g><path d="M 0.1875 0 L 1.25 -10.96875 L 4.96875 -10.96875 L 6.015625 0 L 3.9375 0 L 3.78125 -1.78125 L 2.453125 -1.78125 L 2.328125 0 Z M 2.609375 -3.515625 L 3.609375 -3.515625 L 3.125 -9.109375 L 3.03125 -9.109375 Z M 2.609375 -3.515625 "/></g></g></g><g fill="rgb(85.099792%, 85.099792%, 85.099792%)" fill-opacity="1"><g transform="translate(195.329444, 66.355662)"><g><path d="M 1.4375 0 L 1.4375 -8.859375 L 0.125 -8.859375 L 0.125 -10.96875 L 4.921875 -10.96875 L 4.921875 -8.859375 L 3.625 -8.859375 L 3.625 0 Z M 1.4375 0 "/></g></g></g><g fill="rgb(85.099792%, 85.099792%, 85.099792%)" fill-opacity="1"><g transform="translate(204.165262, 66.355662)"><g><path d="M 0.484375 0 L 0.484375 -10.96875 L 4.875 -10.96875 L 4.875 -8.84375 L 2.71875 -8.84375 L 2.71875 -6.71875 L 4.78125 -6.71875 L 4.78125 -4.640625 L 2.71875 -4.640625 L 2.71875 -2.125 L 5.015625 -2.125 L 5.015625 0 Z M 0.484375 0 "/></g></g></g><g fill="rgb(85.099792%, 85.099792%, 85.099792%)" fill-opacity="1"><g transform="translate(213.205318, 66.355662)"><g><path d="M 3.09375 0.109375 C 2.09375 0.109375 1.367188 -0.132812 0.921875 -0.625 C 0.484375 -1.125 0.265625 -1.925781 0.265625 -3.03125 L 0.265625 -4.09375 L 2.421875 -4.09375 L 2.421875 -2.734375 C 2.421875 -2.191406 2.597656 -1.921875 2.953125 -1.921875 C 3.148438 -1.921875 3.285156 -1.976562 3.359375 -2.09375 C 3.429688 -2.207031 3.46875 -2.398438 3.46875 -2.671875 C 3.46875 -3.023438 3.425781 -3.316406 3.34375 -3.546875 C 3.257812 -3.785156 3.148438 -3.984375 3.015625 -4.140625 C 2.890625 -4.296875 2.65625 -4.539062 2.3125 -4.875 L 1.359375 -5.828125 C 0.628906 -6.535156 0.265625 -7.328125 0.265625 -8.203125 C 0.265625 -9.128906 0.476562 -9.835938 0.90625 -10.328125 C 1.34375 -10.816406 1.972656 -11.0625 2.796875 -11.0625 C 3.785156 -11.0625 4.492188 -10.800781 4.921875 -10.28125 C 5.359375 -9.757812 5.578125 -8.941406 5.578125 -7.828125 L 3.34375 -7.828125 L 3.328125 -8.578125 C 3.328125 -8.722656 3.285156 -8.835938 3.203125 -8.921875 C 3.128906 -9.003906 3.019531 -9.046875 2.875 -9.046875 C 2.695312 -9.046875 2.566406 -9 2.484375 -8.90625 C 2.398438 -8.8125 2.359375 -8.6875 2.359375 -8.53125 C 2.359375 -8.164062 2.5625 -7.796875 2.96875 -7.421875 L 4.25 -6.1875 C 4.550781 -5.894531 4.796875 -5.617188 4.984375 -5.359375 C 5.179688 -5.109375 5.335938 -4.804688 5.453125 -4.453125 C 5.578125 -4.097656 5.640625 -3.675781 5.640625 -3.1875 C 5.640625 -2.101562 5.441406 -1.28125 5.046875 -0.71875 C 4.648438 -0.164062 4 0.109375 3.09375 0.109375 Z M 3.09375 0.109375 "/></g></g></g></svg>